#N canvas 193 214 709 716 10;
#X obj 200 107 hip~ 5;
#X obj 377 108 hip~ 5;
#X obj 161 329 expr~ 2 / (1 + pow(27.1828 \, -$v1)) - 1;
#X obj 435 330 expr~ 2 / (1 + pow(27.1828 \, -$v1)) - 1;
#X obj 290 509 dac~;
#X obj 286 10 adc~;
#N canvas 2 48 454 522 autocompress~ 0;
#X obj 36 41 env~;
#X obj 36 64 dbtorms;
#X obj 36 156 line~;
#X obj 17 184 *~;
#X obj 17 228 outlet~;
#X obj 18 18 inlet~;
#X msg 36 133 \$1 10;
#X obj 36 88 clip 0.05 5;
#X obj 17 206 *~ 0.3;
#X obj 36 110 expr 1 / $f1;
#X connect 0 0 1 0;
#X connect 1 0 7 0;
#X connect 2 0 3 1;
#X connect 3 0 8 0;
#X connect 5 0 0 0;
#X connect 5 0 3 0;
#X connect 6 0 2 0;
#X connect 7 0 9 0;
#X connect 8 0 4 0;
#X connect 9 0 6 0;
#X restore 67 195 pd autocompress~;
#N canvas 287 150 458 526 autocompress~ 1;
#X obj 36 41 env~;
#X obj 36 64 dbtorms;
#X obj 36 156 line~;
#X obj 17 184 *~;
#X obj 17 228 outlet~;
#X obj 18 18 inlet~;
#X msg 36 133 \$1 10;
#X obj 36 88 clip 0.05 5;
#X obj 17 206 *~ 0.3;
#X obj 36 110 expr 1 / $f1;
#X connect 0 0 1 0;
#X connect 1 0 7 0;
#X connect 2 0 3 1;
#X connect 3 0 8 0;
#X connect 5 0 0 0;
#X connect 5 0 3 0;
#X connect 6 0 2 0;
#X connect 7 0 9 0;
#X connect 8 0 4 0;
#X connect 9 0 6 0;
#X restore 485 192 pd autocompress~;
#X obj 56 490 loadbang;
#X msg 56 514 \; pd dsp 1;
#X connect 0 0 2 0;
#X connect 0 0 6 0;
#X connect 1 0 3 0;
#X connect 1 0 7 0;
#X connect 2 0 4 0;
#X connect 3 0 4 1;
#X connect 5 0 0 0;
#X connect 5 1 1 0;
#X connect 6 0 2 0;
#X connect 7 0 3 0;
#X connect 8 0 9 0;
