#N canvas 1123 132 605 606 10;
#X obj 13 567 dac~;
#X obj 514 46 notein;
#X obj 15 16 loadbang;
#X msg 15 59 \; pd dsp 1 \;;
#X obj 100 295 +~;
#X obj 115 267 *~;
#X obj 193 75 mtof;
#X obj 193 97 expr 8000 / $f1;
#X obj 367 51 r \$0/feedback;
#X obj 193 51 r \$0/length;
#X obj 16 106 adc~;
#X obj 100 320 hip~ 5;
#X floatatom 514 91 5 0 0 0 - - -;
#X obj 515 138 f;
#X obj 514 112 t f b;
#X floatatom 515 161 5 0 0 0 - - -;
#X obj 516 208 f;
#X obj 515 182 t f b;
#X floatatom 516 231 5 0 0 0 - - -;
#X obj 517 278 f;
#X obj 516 252 t f b;
#X obj 99 373 delwrite~ \$0-del-l 2000;
#X obj 268 299 +~;
#X obj 283 271 *~;
#X obj 268 324 hip~ 5;
#X obj 435 505 r rvstparameter2 cutoff;
#X obj 434 409 r rvstparameter1 feedback;
#X obj 433 310 r rvstparameter0 delay;
#X obj 433 333 * 127;
#X obj 433 376 s \$0/length;
#X obj 434 460 s \$0/feedback;
#X obj 434 434 * 1.1;
#X obj 267 377 delwrite~ \$0-del-r 2000;
#X text 509 19 collector;
#X obj 100 340 clip~ -1 1;
#X obj 268 344 clip~ -1 1;
#X floatatom 142 98 5 0 0 0 - - -;
#X obj 115 239 vd~ \$0-del-l;
#X obj 282 241 vd~ \$0-del-r;
#X floatatom 376 105 5 0 0 0 - - -;
#X obj 433 354 int;
#X connect 1 0 12 0;
#X connect 2 0 3 0;
#X connect 4 0 11 0;
#X connect 5 0 4 1;
#X connect 6 0 7 0;
#X connect 7 0 37 0;
#X connect 7 0 38 0;
#X connect 8 0 23 1;
#X connect 8 0 5 1;
#X connect 8 0 39 0;
#X connect 9 0 6 0;
#X connect 9 0 36 0;
#X connect 10 0 4 0;
#X connect 10 1 22 0;
#X connect 11 0 34 0;
#X connect 12 0 14 0;
#X connect 13 0 15 0;
#X connect 14 0 13 1;
#X connect 14 1 13 0;
#X connect 15 0 17 0;
#X connect 16 0 18 0;
#X connect 17 0 16 1;
#X connect 17 1 16 0;
#X connect 18 0 20 0;
#X connect 20 0 19 1;
#X connect 20 1 19 0;
#X connect 22 0 24 0;
#X connect 23 0 22 1;
#X connect 24 0 35 0;
#X connect 26 0 31 0;
#X connect 27 0 28 0;
#X connect 28 0 40 0;
#X connect 31 0 30 0;
#X connect 34 0 0 0;
#X connect 34 0 21 0;
#X connect 35 0 0 1;
#X connect 35 0 32 0;
#X connect 37 0 5 0;
#X connect 38 0 23 0;
#X connect 40 0 29 0;
