#N canvas 756 524 466 316 10;
#X obj 9 13 adc~;
#X obj 9 272 dac~;
#X obj 320 12 r rvstparameter0 drive;
#X obj 384 244 loadbang;
#X msg 384 268 \; pd dsp 1 \;;
#X obj 8 192 hip~ 1;
#X obj 9 58 hip~ 1;
#X obj 9 117 expr~ sin($v1 * max($v2 \, 1));
#X obj 320 34 * 110;
#X obj 208 192 hip~ 1;
#X obj 209 58 hip~ 1;
#X obj 209 117 expr~ sin($v1 * max($v2 \, 1));
#X connect 0 0 6 0;
#X connect 0 1 10 0;
#X connect 2 0 8 0;
#X connect 3 0 4 0;
#X connect 5 0 1 0;
#X connect 6 0 7 0;
#X connect 7 0 5 0;
#X connect 8 0 7 1;
#X connect 8 0 11 1;
#X connect 9 0 1 1;
#X connect 10 0 11 0;
#X connect 11 0 9 0;
