#N canvas 1275 419 589 585 10;
#N canvas 215 106 454 304 phase-l 0;
#X obj 8 8 inlet~;
#X obj 8 256 outlet~;
#X obj 8 233 vd~ \$0-l;
#X obj 24 179 inlet;
#X obj 9 210 *~ 20;
#X obj 8 79 delwrite~ \$0-l 20;
#X connect 0 0 5 0;
#X connect 2 0 1 0;
#X connect 3 0 4 0;
#X connect 4 0 2 0;
#X restore 17 402 pd phase-l;
#X obj 111 28 r rvstparameter0;
#X obj 227 137 s svstparameter0;
#X obj 16 22 adc~;
#X obj 18 460 dac~;
#X obj 419 49 loadbang;
#X msg 419 74 \; pd dsp 1;
#X obj 227 74 random 10000;
#X obj 227 96 / 10000;
#X obj 227 52 loadbang;
#N canvas 211 86 454 304 phase-r 0;
#X obj 8 8 inlet~;
#X obj 8 256 outlet~;
#X obj 215 12 inlet;
#X obj 8 233 vd~ \$0-r;
#X obj 9 210 *~ 20;
#X obj 8 79 delwrite~ \$0-r 20;
#X connect 0 0 5 0;
#X connect 2 0 4 0;
#X connect 3 0 1 0;
#X connect 4 0 3 0;
#X restore 86 402 pd phase-r;
#X obj 111 302 expr (0.5 - $f1) * 2;
#X obj 111 324 *;
#X obj 111 134 t f f f;
#X obj 150 155 >= 0.5;
#X obj 130 182 < 0.5;
#X obj 162 231 expr ($f1 - 0.5) * 2;
#X obj 162 253 *;
#X connect 0 0 4 0;
#X connect 1 0 2 0;
#X connect 1 0 13 0;
#X connect 3 0 0 0;
#X connect 3 1 10 0;
#X connect 5 0 6 0;
#X connect 7 0 8 0;
#X connect 8 0 2 0;
#X connect 8 0 13 0;
#X connect 9 0 7 0;
#X connect 10 0 4 1;
#X connect 11 0 12 0;
#X connect 12 0 0 1;
#X connect 13 0 11 0;
#X connect 13 0 16 0;
#X connect 13 1 15 0;
#X connect 13 2 14 0;
#X connect 14 0 17 1;
#X connect 15 0 12 1;
#X connect 16 0 17 0;
#X connect 17 0 10 1;
